<svg xmlns="http://www.w3.org/2000/svg" xmlns:xlink="http://www.w3.org/1999/xlink" viewBox="0 0 15.28 13.17"><defs><style>.cls-1,.cls-10,.cls-11,.cls-12,.cls-13{fill:none;}.cls-2{fill:#51f9fc;}.cls-3{fill:#f7da30;}.cls-4{clip-path:url(#clip-path);}.cls-5{fill:#1c5730;opacity:0.32;}.cls-6{fill:#69faff;}.cls-7{fill:#c00;}.cls-8{fill:#f16d30;}.cls-9{fill:#ccc;}.cls-10,.cls-11,.cls-13{stroke:#ff0;}.cls-10,.cls-11,.cls-12,.cls-13{stroke-miterlimit:10;}.cls-10,.cls-12{stroke-width:0.2px;}.cls-11{stroke-width:0.05px;}.cls-12{stroke:#000;opacity:0.5;}.cls-13{stroke-width:0.02px;}.cls-14{clip-path:url(#clip-path-2);}</style><clipPath id="clip-path"><circle class="cls-1" cx="7.46" cy="6.78" r="6.02"/></clipPath><clipPath id="clip-path-2"><path class="cls-1" d="M11.15,3.43c.09-.08.44-2.28-.07-2.61s-2.36.94-2.41,1.05h0A6.2,6.2,0,0,0,6.15,4.92a1.45,1.45,0,0,0-1,.14A5.46,5.46,0,0,0,3.19,7.88a3.49,3.49,0,0,1,2.16-.37h0v0c-.06.33-.09.55-.09.55l.68.41h0l-.68-.42L5,8.39l.76.49a1.61,1.61,0,0,0-.17.54l0,0h0C5.66,9.5,6,9.13,6,9l.75.48.15-.41-.63-.39h0l.63.39c.19-.08.36-.17.53-.26h0A3.47,3.47,0,0,1,8,11,5.5,5.5,0,0,0,9.79,8a1.45,1.45,0,0,0-.35-1V7a12.56,12.56,0,0,0,1.74-3.56Z"/></clipPath></defs><title>Asset 2</title><g id="Layer_2" data-name="Layer 2"><g id="Layer_11" data-name="Layer 11"><circle class="cls-2" cx="7.46" cy="6.78" r="6.08"/><circle class="cls-3" cx="7.46" cy="6.78" r="6.02"/></g><g id="Layer_13" data-name="Layer 13"><g class="cls-4"><path class="cls-5" d="M11.52,11a6,6,0,0,0,1.09-7.15.75.75,0,0,1-.07-.23.44.44,0,0,1-.35.25,9.49,9.49,0,0,1-.72,2,.44.44,0,0,1,.25.41v0a.5.5,0,0,1-.7.45,11.47,11.47,0,0,1-3.48,3.82.47.47,0,0,1-.47.59.48.48,0,0,1-.32-.12,7.48,7.48,0,0,1-.82.35.47.47,0,0,1-.47.39.44.44,0,0,1-.34-.15L5,11.7A5.25,5.25,0,0,0,11.52,11Z"/><path class="cls-5" d="M14.61,4.79l-.91-1a7,7,0,0,1-1.93,8.32,6.78,6.78,0,0,1-1.84,1.06l1.58,0,3.05-2.09.72-3.54Z"/><path class="cls-5" d="M3.46,11.88a9.1,9.1,0,0,1-1-.05c-5.7-.74.41,1.24.41,1.24l2.77,0A8.45,8.45,0,0,1,3.46,11.88Z"/></g></g><g id="Layer_12" data-name="Layer 12"><path class="cls-6" d="M6.26,9.48s-.37,1.23-.52.95.21-1.17.1-.73a1,1,0,0,1-.84.72c-.08-.43.3-.92.18-.79s-.3,0-.3,0-.15-.15.13-.52a.52.52,0,0,0-.25,0h0A1,1,0,0,0,4,10a.9.9,0,0,0,.63,0,1.76,1.76,0,0,0-.46,1.72,1.78,1.78,0,0,0,1.29-1.14,2.53,2.53,0,0,1-.36,1,2,2,0,0,0,1.08-1.2c0-.08,0-.15.07-.23v0h0A1.25,1.25,0,0,0,6.26,9.48ZM4.79,10l-.07.09Z"/><path class="cls-6" d="M11.23,3.38c.09-.08.44-2.33-.08-2.67s-2.41,1-2.45,1.07h0A6.39,6.39,0,0,0,6.13,4.89a1.6,1.6,0,0,0-1,.15,5.53,5.53,0,0,0-2,2.88,3.55,3.55,0,0,1,2.2-.38h0v0c-.06.35-.09.57-.09.57l.7.42h0l-.7-.42L5,8.43l.78.5a1.74,1.74,0,0,0-.18.56v0h0c.07,0,.36-.33.43-.42l.77.49.16-.42-.64-.4h0l.65.4.54-.27h0a3.56,3.56,0,0,1,.58,2.16,5.59,5.59,0,0,0,1.79-3A1.48,1.48,0,0,0,9.49,7l0,0a12.68,12.68,0,0,0,1.78-3.64Z"/></g><g id="Layer_8" data-name="Layer 8"><path class="cls-7" d="M5.77,8.88c0,.09-.24.53-.17.57S6,9.13,6,9Z"/><path class="cls-8" d="M5.06,9.05c-.28.37-.15.48-.13.51a.22.22,0,0,0,.29,0c.12-.13-.25.35-.18.78a1,1,0,0,0,.82-.71c.12-.44-.11.56-.09.72s.51-.93.51-.93.06,1.41-.79,1.57c.17-.27.09-.52.12-.77a1.41,1.41,0,0,1-1.05.86,1.28,1.28,0,0,1,.37-1.33.76.76,0,0,1-.52,0C4.44,9.3,4.65,9,5.06,9.05Z"/><path class="cls-7" d="M4.81,9.05c-.33.47-.18.6-.15.64H5A1.36,1.36,0,0,0,4.6,11a1.63,1.63,0,0,0,1-.83,3.69,3.69,0,0,0,0,.56c.21,0,.41-.29.6-.63a1.92,1.92,0,0,1-1.13,1.42,2.25,2.25,0,0,0,.35-1,1.72,1.72,0,0,1-1.26,1.11,1.71,1.71,0,0,1,.45-1.68A.93.93,0,0,1,4,10,1,1,0,0,1,4.81,9.05Z"/></g><g id="Layer_7" data-name="Layer 7"><polygon class="cls-7" points="5.01 8.39 6.77 9.52 6.92 9.11 5.26 8.09 5.01 8.39"/></g><g id="Layer_3" data-name="Layer 3"><path class="cls-7" d="M11.15,3.45,8.66,1.88c-.05,0,1.9-1.4,2.42-1.06S11.23,3.43,11.15,3.45Z"/></g><g id="Layer_4" data-name="Layer 4"><path class="cls-9" d="M11.17,3.45S10,7.87,6.93,9.11l-1.67-1s.53-4.63,3.4-6.23Z"/></g><g id="Layer_10" data-name="Layer 10"><line class="cls-10" x1="7.72" y1="8.7" x2="5.38" y2="7.23"/><line class="cls-10" x1="8.14" y1="8.39" x2="5.53" y2="6.75"/><line class="cls-11" x1="11.16" y1="3.46" x2="8.68" y2="1.86"/></g><g id="Layer_5" data-name="Layer 5"><path class="cls-7" d="M9.44,7a1.45,1.45,0,0,1,.35,1A5.5,5.5,0,0,1,8,11a3.47,3.47,0,0,0-.57-2.12"/><path class="cls-7" d="M7.46,8.85A5.69,5.69,0,0,0,9.4,7.06"/></g><g id="Layer_6" data-name="Layer 6"><path class="cls-7" d="M6.2,4.94a1.41,1.41,0,0,0-1.08.12A5.46,5.46,0,0,0,3.19,7.88a3.49,3.49,0,0,1,2.16-.37"/><path class="cls-7" d="M5.35,7.54A5.76,5.76,0,0,1,6.17,5"/></g><g id="Layer_14" data-name="Layer 14"><g id="Layer_9" data-name="Layer 9"><path class="cls-7" d="M7.8,6A6.73,6.73,0,0,1,5.58,9.46,6.69,6.69,0,0,1,7.8,6Z"/></g><g id="Layer_2-2" data-name="Layer 2"><circle class="cls-12" cx="9.11" cy="3.98" r="0.82"/><circle class="cls-13" cx="9.11" cy="3.98" r="0.82"/></g><g class="cls-14"><path class="cls-5" d="M12.45,3V2.66L11.94.93,11.42,0c.08,0-.06.41-.34,1a3.41,3.41,0,0,1-.54,1.38l0,0a3.48,3.48,0,0,1-.82,1.06,1.4,1.4,0,0,1-.1.16.65.65,0,0,1-.38,1,.54.54,0,0,1-.22,0l-.09.15h0A8.82,8.82,0,0,1,6.1,9.38l.3,0,.15.52.19.43a.5.5,0,1,1,.39.86,2.23,2.23,0,0,0,.24.45s1.74.21,1.74.21L10.94,10l1-2.4.49-2.47V3.74a.5.5,0,0,1-.84-.35V3.34A.5.5,0,0,1,12.45,3Zm-.73,3.3v0a.45.45,0,0,1-.31.45.43.43,0,0,1-.1.52l0,0a.5.5,0,0,1-.71-.71l0,0a.44.44,0,0,1,.15-.1.74.74,0,0,1,0-.17v0A.5.5,0,0,1,11.72,6.3Z"/></g></g></g></svg>